<svg width="64" height="64" viewBox="0 0 128 127" xmlns="http://www.w3.org/2000/svg">
    <path d="M117.394 35.743C113.491 13.137 97.029 2.4883 73.539 0C62.766 0 53.322 2.82613 41.655 8.6354C32.579 3.18225 24.105 0.594811 16.247 0.10574V126.073C32.477 128.073 45.091 126.385 54.032 124.014C67.877 120.076 80.237 111.19 93.183 98.6671C105.306 86.6242 113.428 73.098 117.142 57.8828C117.969 54.3561 118.599 50.5026 117.394 35.743Z" fill="#805CEB"/>
    <path d="M63.229 109.757C70.788 109.757 76.256 105.874 76.256 98.4519C76.256 91.0283 70.788 87.1468 63.229 87.1468C55.6586 87.1468 50.1912 91.0283 50.1912 98.4519C50.1912 105.874 55.6586 109.757 63.229 109.757ZM72.544 39.1155C72.544 38 71.897 37.4508 70.271 37.4508H65.195L58.572 64.0917H67.489L67.038 66.6398C65.089 60.8114 62.556 53.3581 59.448 44.2856L63.290 44.2856L63.290 39.1155L72.544 39.1155ZM78.9662 64.0917H87.1143L87.564 66.6398C90.2477 75.4953 92.6037 83.4125 95.28 93.2735A59.6285 59.6285 0 0 1 101.364 108.2808C111.024 65.6375 123.445 33.546 117.587 3.69619C9.3189 -2.72978 88.5465 -1.52856 77.882 5.72674C50.5522 19.2382 51.5074 70.1375 48.8248 95.4732C51.6685 108.773 63.8544 119.405 79.3587 119.405C97.687 120.598 105.741 98.1536 107.331 88.3116C109.429 77.0806 106.765 69.244 98.138 64.0917H78.9662Z" fill="#EEFFBF"/>
</svg>